<svg width="45" height="38" viewBox="0 0 45 38" fill="none" xmlns="http://www.w3.org/2000/svg">
<path d="M9.95505 5.08284L10.8204 8.47146L14.1636 21.5618H38.4608L40.9166 8.44993L25.8779 8.46069L22.4911 5.07387L42.5889 5.05949C43.8416 5.05859 44.7867 6.19638 44.5561 7.42767L41.5798 23.3191C41.4026 24.2653 40.5766 24.951 39.614 24.951L13.0847 24.9511C12.1707 24.9511 11.373 24.3315 11.1468 23.446L6.0245 3.38922H0.000105796V0H7.10348C8.01743 0 8.81511 0.619556 9.04128 1.50508L9.95505 5.08284Z" fill="#98BE2B"/>
<path d="M16.1712 37.3024C13.1826 37.3024 10.7512 34.8709 10.7512 31.8824C10.7512 28.8938 13.1826 26.4625 16.1712 26.4625H36.5913C39.5798 26.4625 42.0112 28.8938 42.0112 31.8824C42.0112 34.8709 39.5799 37.3024 36.5913 37.3024C33.6027 37.3024 31.1714 34.8709 31.1714 31.8824C31.1714 31.1647 31.312 30.4793 31.5664 29.8517H21.196C21.4505 30.4793 21.5911 31.1647 21.5911 31.8824C21.5911 34.8709 19.1597 37.3024 16.1712 37.3024ZM34.5606 31.8824C34.5606 33.0022 35.4715 33.9131 36.5913 33.9131C37.711 33.9131 38.622 33.0022 38.622 31.8824C38.622 30.7627 37.7111 29.8517 36.5913 29.8517C35.4715 29.8517 34.5606 30.7627 34.5606 31.8824ZM14.1404 31.8824C14.1404 33.0022 15.0514 33.9131 16.1711 33.9131C17.2908 33.9131 18.2018 33.0022 18.2018 31.8824C18.2018 30.7627 17.2908 29.8517 16.1711 29.8517C15.0514 29.8517 14.1404 30.7627 14.1404 31.8824Z" fill="#98BE2B"/>
</svg>
