<svg width="25" height="24" viewBox="0 0 25 24" fill="none" xmlns="http://www.w3.org/2000/svg">
<path d="M13.6495 11.03H21.9595C22.3469 11.0291 22.7294 11.1157 23.0786 11.2834C23.4277 11.4511 23.7344 11.6955 23.9758 11.9985C24.2172 12.3014 24.387 12.6549 24.4725 13.0327C24.558 13.4105 24.557 13.8027 24.4695 14.18L23.0095 21.18C22.886 21.748 22.5714 22.2564 22.1182 22.6203C21.6651 22.9843 21.1008 23.1819 20.5195 23.18H15.0595C14.4771 23.1823 13.9114 22.9851 13.4566 22.6213C13.0017 22.2574 12.6852 21.7488 12.5595 21.18L11.1395 14.18C11.0521 13.8027 11.0511 13.4105 11.1366 13.0327C11.2221 12.6549 11.3919 12.3014 11.6333 11.9985C11.8747 11.6955 12.1814 11.4511 12.5305 11.2834C12.8797 11.1157 13.2622 11.0291 13.6495 11.03V11.03Z" stroke="#1E1E1C" stroke-width="0.5" stroke-miterlimit="10"/>
<path d="M15.16 13.23H20.45C20.6966 13.2281 20.9404 13.2822 21.163 13.3881C21.3857 13.4941 21.5814 13.6492 21.7354 13.8417C21.8894 14.0343 21.9978 14.2592 22.0523 14.4997C22.1068 14.7402 22.106 14.9899 22.05 15.23L21.12 19.66C21.0423 20.0244 20.8422 20.3511 20.5529 20.5858C20.2636 20.8205 19.9026 20.9491 19.53 20.95H16.06C15.6849 20.949 15.3214 20.8194 15.0302 20.5829C14.7391 20.3463 14.5378 20.017 14.46 19.65L13.56 15.18C13.5127 14.9434 13.5184 14.6992 13.5769 14.465C13.6354 14.2309 13.7451 14.0127 13.8982 13.8261C14.0513 13.6395 14.2439 13.4893 14.4621 13.3862C14.6803 13.2831 14.9187 13.2298 15.16 13.23Z" stroke="#1E1E1C" stroke-width="0.5" stroke-miterlimit="10"/>
<path d="M20.4696 8.43005H15.1396V11.0301H20.4696V8.43005Z" stroke="#1E1E1C" stroke-width="0.5" stroke-miterlimit="10"/>
<path d="M19.7001 0.25H15.9101C15.0375 0.25 14.3301 0.95739 14.3301 1.83V6.86C14.3301 7.73261 15.0375 8.44 15.9101 8.44H19.7001C20.5727 8.44 21.2801 7.73261 21.2801 6.86V1.83C21.2801 0.95739 20.5727 0.25 19.7001 0.25Z" stroke="#1E1E1C" stroke-width="0.5" stroke-miterlimit="10"/>
<path d="M19.4795 2.13V5.42" stroke="#1E1E1C" stroke-width="0.5" stroke-linecap="round" stroke-linejoin="round"/>
<path d="M7.7 9.48003C8.21696 9.90492 8.63313 10.4393 8.91847 11.0445C9.20381 11.6498 9.3512 12.3109 9.35 12.98V23.11H0.250002V12.98C0.249378 12.2928 0.404761 11.6145 0.704436 10.9961C1.00411 10.3777 1.44026 9.83536 1.98 9.41003" stroke="#1E1E1C" stroke-width="0.5" stroke-linecap="round" stroke-linejoin="round"/>
<path d="M4.88949 4.73005C5.63931 4.74316 6.35398 5.05026 6.87957 5.5852C7.40516 6.12014 7.69961 6.84012 7.69949 7.59005V12.7901C7.69949 13.1348 7.56253 13.4655 7.31873 13.7093C7.07493 13.9531 6.74427 14.0901 6.39949 14.0901H3.27949C2.93471 14.0901 2.60405 13.9531 2.36025 13.7093C2.11646 13.4655 1.97949 13.1348 1.97949 12.7901V7.59005C1.97943 7.21023 2.05503 6.83419 2.20188 6.4839C2.34872 6.13361 2.56387 5.81608 2.83477 5.54984C3.10566 5.2836 3.42687 5.07399 3.77966 4.93324C4.13244 4.79248 4.50973 4.72341 4.88949 4.73005V4.73005Z" stroke="#1E1E1C" stroke-width="0.5" stroke-linecap="round" stroke-linejoin="round"/>
<path d="M2.67969 15.0601C3.31229 15.5092 4.06889 15.7504 4.84469 15.7504C5.62049 15.7504 6.37709 15.5092 7.00969 15.0601" stroke="#1E1E1C" stroke-width="0.5" stroke-linecap="round" stroke-linejoin="round"/>
</svg>
