<svg width="24" height="20" viewBox="0 0 24 20" fill="none" xmlns="http://www.w3.org/2000/svg">
<path d="M5.46 0.760742H1.34C0.73801 0.760742 0.25 1.24875 0.25 1.85074V17.7707C0.25 18.3727 0.73801 18.8607 1.34 18.8607H5.46C6.06199 18.8607 6.55 18.3727 6.55 17.7707V1.85074C6.55 1.24875 6.06199 0.760742 5.46 0.760742Z" stroke="#1D1D1B" stroke-width="0.5" stroke-miterlimit="10"/>
<path d="M4.29977 2.24084H2.75977C2.20748 2.24084 1.75977 2.68856 1.75977 3.24084V11.2408C1.75977 11.7931 2.20748 12.2408 2.75977 12.2408H4.29977C4.85205 12.2408 5.29977 11.7931 5.29977 11.2408V3.24084C5.29977 2.68856 4.85205 2.24084 4.29977 2.24084Z" stroke="#1D1D1B" stroke-width="0.5" stroke-miterlimit="10"/>
<path d="M0.25 14.5808H6.55" stroke="#1D1D1B" stroke-width="0.5" stroke-miterlimit="10"/>
<path d="M0.25 16.5408H6.55" stroke="#1D1D1B" stroke-width="0.5" stroke-miterlimit="10"/>
<path d="M11.7598 0.760742H7.6398C7.03781 0.760742 6.5498 1.24875 6.5498 1.85074V17.7707C6.5498 18.3727 7.03781 18.8607 7.6398 18.8607H11.7598C12.3618 18.8607 12.8498 18.3727 12.8498 17.7707V1.85074C12.8498 1.24875 12.3618 0.760742 11.7598 0.760742Z" stroke="#1D1D1B" stroke-width="0.5" stroke-miterlimit="10"/>
<path d="M10.5996 2.24084H9.05957C8.50729 2.24084 8.05957 2.68856 8.05957 3.24084V11.2408C8.05957 11.7931 8.50729 12.2408 9.05957 12.2408H10.5996C11.1519 12.2408 11.5996 11.7931 11.5996 11.2408V3.24084C11.5996 2.68856 11.1519 2.24084 10.5996 2.24084Z" stroke="#1D1D1B" stroke-width="0.5" stroke-miterlimit="10"/>
<path d="M6.5498 14.5808H12.8498" stroke="#1D1D1B" stroke-width="0.5" stroke-miterlimit="10"/>
<path d="M6.5498 16.5408H12.8498" stroke="#1D1D1B" stroke-width="0.5" stroke-miterlimit="10"/>
<path d="M17.622 0.288764L13.6473 1.37315C13.0665 1.53159 12.7241 2.13084 12.8826 2.7116L17.0727 18.0703C17.2312 18.651 17.8304 18.9934 18.4112 18.835L22.3859 17.7506C22.9667 17.5921 23.309 16.9929 23.1506 16.4121L18.9605 1.05344C18.802 0.472679 18.2028 0.13032 17.622 0.288764Z" stroke="#1D1D1B" stroke-width="0.5" stroke-miterlimit="10"/>
<path d="M16.8928 2.02874L15.4071 2.43407C14.8743 2.57943 14.5602 3.1292 14.7056 3.66201L16.8112 11.3799C16.9565 11.9128 17.5063 12.2268 18.0391 12.0815L19.5248 11.6762C20.0576 11.5308 20.3717 10.981 20.2264 10.4482L18.1208 2.73028C17.9754 2.19747 17.4256 1.88338 16.8928 2.02874Z" stroke="#1D1D1B" stroke-width="0.5" stroke-miterlimit="10"/>
<path d="M16.2393 15.0008L22.3193 13.3408" stroke="#1D1D1B" stroke-width="0.5" stroke-miterlimit="10"/>
<path d="M16.75 16.8808L22.83 15.2208" stroke="#1D1D1B" stroke-width="0.5" stroke-miterlimit="10"/>
</svg>
