<svg width="25" height="25" viewBox="0 0 25 25" fill="none" xmlns="http://www.w3.org/2000/svg">
<path d="M23.8942 0.903143C24.3124 1.32135 24.5474 1.88856 24.5474 2.47999C24.5474 3.07142 24.3124 3.63863 23.8942 4.05684L23.2578 4.69324C23.0084 4.94266 22.6701 5.08278 22.3174 5.08278C21.9646 5.08278 21.6264 4.94266 21.3769 4.69324L20.1041 3.42044C19.8547 3.17102 19.7146 2.83273 19.7146 2.47999C19.7146 2.12725 19.8547 1.78896 20.1041 1.53954L20.7405 0.903142C21.1587 0.484936 21.726 0.249991 22.3174 0.249991C22.9088 0.249991 23.476 0.484937 23.8942 0.903143V0.903143Z" stroke="#1E1E1C" stroke-width="0.5" stroke-linecap="round" stroke-linejoin="round"/>
<path d="M17.0666 14.5852L7.66657 23.9852C7.48083 24.1712 7.26025 24.3187 7.01745 24.4194C6.77466 24.52 6.5144 24.5718 6.25157 24.5718C5.98874 24.5718 5.72849 24.52 5.48569 24.4194C5.2429 24.3187 5.02232 24.1712 4.83657 23.9852L0.836573 19.9852C0.65062 19.7995 0.503102 19.5789 0.402454 19.3361C0.301805 19.0933 0.25 18.8331 0.25 18.5702C0.25 18.3074 0.301805 18.0472 0.402454 17.8044C0.503102 17.5616 0.65062 17.341 0.836573 17.1552L10.2366 7.75525" stroke="#1E1E1C" stroke-width="0.5" stroke-linecap="round" stroke-linejoin="round"/>
<path d="M10.207 7.72528C10.207 7.72528 11.397 6.58528 14.437 6.39528C15.2018 6.3443 15.9273 6.03792 16.497 5.52528L19.497 2.78528" stroke="#1E1E1C" stroke-width="0.5" stroke-linecap="round" stroke-linejoin="round"/>
<path d="M17.0664 14.5653C17.0664 14.5653 18.2764 13.4053 18.3964 10.3353C18.4403 9.56885 18.7476 8.84113 19.2664 8.27527L22.0064 5.27527" stroke="#1E1E1C" stroke-width="0.5" stroke-linecap="round" stroke-linejoin="round"/>
<path d="M17.3468 14.0352L15.0668 11.7552C15.2044 11.4418 15.2442 11.0941 15.1809 10.7577C15.1177 10.4213 14.9543 10.1118 14.7123 9.86973C14.4702 9.62768 14.1607 9.46434 13.8243 9.40108C13.4879 9.33783 13.1402 9.37762 12.8268 9.51523L10.6768 7.36523" stroke="#1E1E1C" stroke-width="0.5" stroke-linecap="round" stroke-linejoin="round"/>
<path d="M8.99707 8.90527L11.2271 11.1353C11.116 11.4395 11.0941 11.7692 11.164 12.0855C11.234 12.4018 11.3928 12.6915 11.6218 12.9205C11.8509 13.1495 12.1406 13.3084 12.4569 13.3783C12.7731 13.4483 13.1028 13.4264 13.4071 13.3153L15.8871 15.7953" stroke="#1E1E1C" stroke-width="0.5" stroke-linecap="round" stroke-linejoin="round"/>
<path d="M6.81641 11.1152L13.6764 17.9752" stroke="#1E1E1C" stroke-width="0.5" stroke-linecap="round" stroke-linejoin="round"/>
<path d="M1.19629 16.7352L7.92629 23.4552" stroke="#1E1E1C" stroke-width="0.5" stroke-linecap="round" stroke-linejoin="round"/>
<path d="M6.65625 14.9852L9.80625 18.1352" stroke="#1E1E1C" stroke-width="0.5" stroke-linecap="round" stroke-linejoin="round"/>
<path d="M3.66699 15.8752L4.45699 16.6552" stroke="#1E1E1C" stroke-width="0.5" stroke-linecap="round" stroke-linejoin="round"/>
<path d="M5.28711 17.4852L8.61711 20.8252" stroke="#1E1E1C" stroke-width="0.5" stroke-linecap="round" stroke-linejoin="round"/>
</svg>
