<svg width="24" height="24" viewBox="0 0 24 24" fill="none" xmlns="http://www.w3.org/2000/svg">
<path d="M16.424 1.17053C16.1026 2.18219 15.4601 3.06145 14.5939 3.67501C13.7277 4.28857 12.685 4.60297 11.624 4.57053" stroke="#1E1E1C" stroke-width="0.5" stroke-miterlimit="10"/>
<path d="M11.6045 23.6705C13.7743 23.7781 15.9494 23.6945 18.1045 23.4205L18.4045 10.0005L19.7645 11.0805L23.0845 7.69046L19.5545 2.69046L14.7645 0.350464C14.5446 1.01849 14.1338 1.60747 13.5828 2.04465C13.0319 2.48182 12.365 2.74806 11.6645 2.81046" stroke="#1E1E1C" stroke-width="0.5" stroke-miterlimit="10"/>
<path d="M18.4045 10.0006C18.4045 10.0006 17.9645 5.00056 19.5545 2.70056" stroke="#1E1E1C" stroke-width="0.5" stroke-miterlimit="10"/>
<path d="M6.98438 1.17053C7.30581 2.18219 7.94833 3.06145 8.81454 3.67501C9.68074 4.28857 10.7234 4.60297 11.7844 4.57053" stroke="#1E1E1C" stroke-width="0.5" stroke-miterlimit="10"/>
<path d="M11.8042 23.6705C9.63441 23.7781 7.45934 23.6945 5.30422 23.4205L5.00422 10.0005L3.64422 11.0805L0.324219 7.69046L3.85422 2.69046L8.64422 0.350464C8.86416 1.01849 9.27495 1.60747 9.82587 2.04465C10.3768 2.48182 11.0437 2.74806 11.7442 2.81046" stroke="#1E1E1C" stroke-width="0.5" stroke-miterlimit="10"/>
<path d="M5.00449 10.0006C5.00449 10.0006 5.44449 5.00056 3.85449 2.70056" stroke="#1E1E1C" stroke-width="0.5" stroke-miterlimit="10"/>
</svg>
