<svg width="25" height="18" viewBox="0 0 25 18" fill="none" xmlns="http://www.w3.org/2000/svg">
<path d="M18.62 4.47003H6.37997C2.9779 4.47003 0.219971 7.22796 0.219971 10.63V10.64C0.219971 14.0421 2.9779 16.8 6.37997 16.8H18.62C22.022 16.8 24.78 14.0421 24.78 10.64V10.63C24.78 7.22796 22.022 4.47003 18.62 4.47003Z" stroke="#1E1E1C" stroke-width="0.5" stroke-miterlimit="10"/>
<path d="M9.12999 9.98002H7.16999V8.02002H5.44999V9.98002H3.48999V11.7H5.44999V13.66H7.16999V11.7H9.12999V9.98002Z" stroke="#1E1E1C" stroke-width="0.5" stroke-miterlimit="10"/>
<path d="M16.57 11.64C17.0174 11.64 17.38 11.2774 17.38 10.83C17.38 10.3827 17.0174 10.02 16.57 10.02C16.1227 10.02 15.76 10.3827 15.76 10.83C15.76 11.2774 16.1227 11.64 16.57 11.64Z" stroke="#1E1E1C" stroke-width="0.5" stroke-miterlimit="10"/>
<path d="M20.7099 11.64C21.1573 11.64 21.5199 11.2774 21.5199 10.83C21.5199 10.3827 21.1573 10.02 20.7099 10.02C20.2626 10.02 19.8999 10.3827 19.8999 10.83C19.8999 11.2774 20.2626 11.64 20.7099 11.64Z" stroke="#1E1E1C" stroke-width="0.5" stroke-miterlimit="10"/>
<path d="M18.6501 9.52002C19.0974 9.52002 19.4601 9.15738 19.4601 8.71002C19.4601 8.26267 19.0974 7.90002 18.6501 7.90002C18.2027 7.90002 17.8401 8.26267 17.8401 8.71002C17.8401 9.15738 18.2027 9.52002 18.6501 9.52002Z" stroke="#1E1E1C" stroke-width="0.5" stroke-miterlimit="10"/>
<path d="M18.6501 13.66C19.0974 13.66 19.4601 13.2974 19.4601 12.85C19.4601 12.4027 19.0974 12.04 18.6501 12.04C18.2027 12.04 17.8401 12.4027 17.8401 12.85C17.8401 13.2974 18.2027 13.66 18.6501 13.66Z" stroke="#1E1E1C" stroke-width="0.5" stroke-miterlimit="10"/>
<path d="M11.4201 13.66H9.81006V14.37H11.4201V13.66Z" fill="#1E1E1C"/>
<path d="M15.09 13.66H13.48V14.37H15.09V13.66Z" fill="#1E1E1C"/>
<path d="M15.6701 2.10004H9.33008V4.47004H15.6701V2.10004Z" stroke="#1E1E1C" stroke-width="0.5" stroke-miterlimit="10"/>
<path d="M13.11 0H11.71V2.1H13.11V0Z" fill="#1E1E1C"/>
</svg>
