<svg width="24" height="25" viewBox="0 0 24 25" fill="none" xmlns="http://www.w3.org/2000/svg">
<path d="M10.0705 12.15C7.30758 13.0956 4.64469 14.3115 2.12051 15.78C1.72414 16.0184 1.30127 16.2097 0.860511 16.35V16.35C0.761263 16.3676 0.659056 16.3559 0.566323 16.3164C0.47359 16.2769 0.394327 16.2114 0.338177 16.1277C0.282026 16.044 0.251408 15.9458 0.250047 15.845C0.248686 15.7442 0.276641 15.6452 0.330511 15.56V15.56C0.760904 14.9384 1.25711 14.3651 1.81051 13.85V13.85C2.01135 13.6628 2.27595 13.5591 2.55051 13.56H3.08051L7.63051 10.75L7.90051 10.43C8.33086 9.94028 8.89894 9.59177 9.53051 9.43002L10.1105 9.27002L10.0705 12.15Z" stroke="#1E1E1C" stroke-width="0.5" stroke-linejoin="round"/>
<path d="M13.9907 14.53L11.4107 23.6C11.3859 23.6883 11.3859 23.7817 11.4107 23.87V23.87C11.4452 24.0284 11.5219 24.1744 11.6327 24.2928C11.7434 24.4112 11.884 24.4974 12.0397 24.5425C12.1954 24.5876 12.3603 24.5897 12.5172 24.5488C12.674 24.5079 12.8168 24.4254 12.9307 24.31L13.0107 24.23L14.6007 20.82V20.37C14.6003 19.9563 14.7535 19.5572 15.0307 19.25L15.5907 18.64V18.13C15.5854 17.9155 15.6285 17.7025 15.7168 17.5069C15.8051 17.3113 15.9363 17.138 16.1007 17L16.5707 16.61C16.6958 16.5138 16.7963 16.3894 16.8641 16.2468C16.9319 16.1043 16.965 15.9478 16.9607 15.79V15C16.9608 14.9125 16.943 14.8259 16.9084 14.7455C16.8738 14.6651 16.823 14.5927 16.7593 14.5327C16.6956 14.4727 16.6202 14.4265 16.5379 14.3968C16.4556 14.367 16.368 14.3545 16.2807 14.36L13.9907 14.53Z" stroke="#1E1E1C" stroke-width="0.5" stroke-miterlimit="10"/>
<path d="M10.0706 9.43002C10.0706 9.43002 13.9306 7.94001 14.4906 6.89001H15.7106L18.1306 10.63C18.2192 10.7754 18.261 10.9445 18.2503 11.1145C18.2395 11.2844 18.1768 11.4469 18.0706 11.58C17.7893 11.9499 17.4021 12.2254 16.9606 12.37H13.8606C13.3747 11.8766 12.738 11.5595 12.0515 11.4689C11.3649 11.3784 10.6678 11.5195 10.0706 11.87V9.43002Z" stroke="#1E1E1C" stroke-width="0.5" stroke-miterlimit="10"/>
<path d="M13.8606 12.37L14.2406 14.52L16.3006 14.38L17.3706 12.19" stroke="#1E1E1C" stroke-width="0.5" stroke-miterlimit="10"/>
<path d="M15.4805 6.87998C15.4805 6.87998 19.7005 3.71998 19.6305 0.419983C19.6305 0.419983 22.4705 5.41998 16.7305 8.20998" stroke="#1E1E1C" stroke-width="0.5" stroke-miterlimit="10"/>
<path d="M16.9604 8.79999C16.9604 8.79999 22.8404 7.92999 23.4004 2.92999C23.4004 2.92999 24.5205 8.10999 18.2805 10.98" stroke="#1E1E1C" stroke-width="0.5" stroke-miterlimit="10"/>
</svg>
