<svg width="25" height="21" viewBox="0 0 25 21" fill="none" xmlns="http://www.w3.org/2000/svg">
<path d="M10.9601 13.741H2.76008C1.83224 13.741 1.08008 14.4932 1.08008 15.421V18.801C1.08008 19.7289 1.83224 20.481 2.76008 20.481H10.9601C11.8879 20.481 12.6401 19.7289 12.6401 18.801V15.421C12.6401 14.4932 11.8879 13.741 10.9601 13.741Z" stroke="#1E1E1C" stroke-width="0.5" stroke-miterlimit="10"/>
<path d="M9.12 6.45104H12.2V0.25104H3.53C2.6846 0.229494 1.86505 0.543468 1.25044 1.12435C0.635835 1.70522 0.276153 2.50577 0.25 3.35104C0.276153 4.19631 0.635835 4.99686 1.25044 5.57773C1.86505 6.15861 2.6846 6.47259 3.53 6.45104H5.39" stroke="#1E1E1C" stroke-width="0.5" stroke-miterlimit="10"/>
<path d="M14.53 5.48106L12.2 6.08106V0.71106L14.53 1.47106V5.48106Z" stroke="#1E1E1C" stroke-width="0.5" stroke-miterlimit="10"/>
<path d="M17.77 5.09104L14.53 5.33104V1.63104L17.77 1.87104C18.77 1.87104 19.62 3.48104 19.62 3.48104C19.62 3.48104 18.8 5.09104 17.77 5.09104Z" stroke="#1E1E1C" stroke-width="0.5" stroke-miterlimit="10"/>
<path d="M19.6199 3.48102H24.6699" stroke="#1E1E1C" stroke-width="0.5" stroke-miterlimit="10" stroke-linecap="round"/>
<path d="M3.34991 13.741C3.34991 13.741 3.07991 8.87105 5.20991 6.45105" stroke="#1E1E1C" stroke-width="0.5" stroke-miterlimit="10"/>
<path d="M7.40991 13.741C7.40991 13.741 7.63991 9.87105 8.34991 9.25105H9.11991C9.11991 9.25105 8.18991 6.45105 9.11991 6.45105" stroke="#1E1E1C" stroke-width="0.5" stroke-linejoin="round"/>
</svg>
