<svg width="25" height="25" viewBox="0 0 25 25" fill="none" xmlns="http://www.w3.org/2000/svg">
<path d="M2.05613 19.351V15.571L0.286133 12.491L2.05613 9.17102V5.39102L5.25613 4.20102L8.92613 0.291016L12.5661 1.48102L16.1461 0.291016L18.5161 3.14102L22.5361 5.27102V9.05102L24.4261 12.251L22.8961 15.681L23.0061 18.881L19.6961 20.661L16.4961 24.331L12.5661 23.611L9.04613 24.331L5.72613 21.251L2.05613 19.351Z" stroke="#1E1E1C" stroke-width="0.5" stroke-miterlimit="10"/>
<path d="M6.98633 17.221L17.2463 7.28101" stroke="#1E1E1C" stroke-width="0.5" stroke-miterlimit="10"/>
<path d="M8.93668 11.071C10.091 11.071 11.0267 10.1353 11.0267 8.98099C11.0267 7.82672 10.091 6.89099 8.93668 6.89099C7.7824 6.89099 6.84668 7.82672 6.84668 8.98099C6.84668 10.1353 7.7824 11.071 8.93668 11.071Z" stroke="#1E1E1C" stroke-width="0.5" stroke-miterlimit="10"/>
<path d="M15.7765 18.121C16.9308 18.121 17.8665 17.1853 17.8665 16.031C17.8665 14.8768 16.9308 13.941 15.7765 13.941C14.6222 13.941 13.6865 14.8768 13.6865 16.031C13.6865 17.1853 14.6222 18.121 15.7765 18.121Z" stroke="#1E1E1C" stroke-width="0.5" stroke-miterlimit="10"/>
</svg>
