<svg width="25" height="24" viewBox="0 0 25 24" fill="none" xmlns="http://www.w3.org/2000/svg">
<path d="M2.89512 19.632C3.80317 19.1072 4.55284 18.3471 5.06512 17.4319C5.20333 17.0971 5.44096 16.8127 5.74592 16.6172C6.05089 16.4217 6.4085 16.3245 6.77047 16.3386C7.13245 16.3528 7.48136 16.4777 7.7701 16.6965C8.05884 16.9152 8.27351 17.2173 8.38512 17.562C9.31512 19.892 11.5851 19.962 11.6151 21.392C11.6537 21.7105 11.6061 22.0335 11.4771 22.3272C11.348 22.621 11.1424 22.8747 10.8818 23.0617C10.6211 23.2488 10.315 23.3624 9.99539 23.3906C9.67579 23.4187 9.35449 23.3605 9.06512 23.222C8.32721 22.7655 7.47998 22.5163 6.61247 22.5005C5.74495 22.4846 4.88919 22.7028 4.13512 23.1319C2.33512 24.2419 0.235116 21.082 2.89512 19.632Z" stroke="#1E1E1C" stroke-width="0.5" stroke-miterlimit="10"/>
<path d="M5.3346 15.4704C6.11509 15.2276 6.45257 14.0817 6.08837 12.911C5.72418 11.7402 4.79623 10.988 4.01574 11.2308C3.23525 11.4736 2.89778 12.6195 3.26197 13.7902C3.62617 14.9609 4.55411 15.7132 5.3346 15.4704Z" stroke="#1E1E1C" stroke-width="0.5" stroke-miterlimit="10"/>
<path d="M9.99019 13.9688C10.3863 12.8085 10.0804 11.6538 9.30683 11.3897C8.53329 11.1256 7.58508 11.8522 7.18894 13.0125C6.79281 14.1728 7.09876 15.3275 7.8723 15.5916C8.64585 15.8557 9.59406 15.1291 9.99019 13.9688Z" stroke="#1E1E1C" stroke-width="0.5" stroke-miterlimit="10"/>
<path d="M12.8132 17.0056C13.3169 16.0725 13.2248 15.046 12.6076 14.7128C11.9904 14.3796 11.0817 14.866 10.578 15.7991C10.0743 16.7322 10.1664 17.7587 10.7836 18.0919C11.4008 18.4251 12.3095 17.9387 12.8132 17.0056Z" stroke="#1E1E1C" stroke-width="0.5" stroke-miterlimit="10"/>
<path d="M2.70443 17.8386C3.30653 17.4789 3.35369 16.4493 2.80978 15.539C2.26586 14.6288 1.33683 14.1825 0.734729 14.5423C0.132629 14.9021 0.0854631 15.9316 0.62938 16.8419C1.1733 17.7522 2.10233 18.1984 2.70443 17.8386Z" stroke="#1E1E1C" stroke-width="0.5" stroke-miterlimit="10"/>
<path d="M14.246 8.74198C15.1548 8.21703 15.9019 7.45256 16.406 6.53198C16.5482 6.20153 16.7872 5.92194 17.0915 5.73005C17.3958 5.53816 17.7511 5.44298 18.1106 5.45705C18.4701 5.47113 18.8169 5.5938 19.1052 5.8089C19.3936 6.024 19.61 6.32142 19.726 6.66198C20.656 9.00198 22.936 9.07198 22.956 10.502C23.0032 10.8224 22.9621 11.1496 22.8371 11.4484C22.7121 11.7472 22.5079 12.0063 22.2466 12.1976C21.9853 12.389 21.6767 12.5054 21.3541 12.5344C21.0316 12.5633 20.7072 12.5037 20.416 12.362C19.6762 11.9057 18.8273 11.6566 17.9583 11.6408C17.0892 11.6249 16.2319 11.8429 15.476 12.272C13.726 13.362 11.636 10.192 14.246 8.74198Z" stroke="#1E1E1C" stroke-width="0.5" stroke-miterlimit="10"/>
<path d="M16.6628 4.51497C17.4393 4.26975 17.7706 3.12674 17.4028 1.96197C17.035 0.797198 16.1073 0.0517522 15.3308 0.296967C14.5543 0.542181 14.223 1.6852 14.5908 2.84997C14.9586 4.01474 15.8863 4.76018 16.6628 4.51497Z" stroke="#1E1E1C" stroke-width="0.5" stroke-miterlimit="10"/>
<path d="M21.3974 3.07172C21.7936 1.91141 21.4876 0.7567 20.7141 0.492611C19.9405 0.228522 18.9923 0.955056 18.5962 2.11537C18.2 3.27569 18.506 4.4304 19.2795 4.69448C20.0531 4.95857 21.0013 4.23204 21.3974 3.07172Z" stroke="#1E1E1C" stroke-width="0.5" stroke-miterlimit="10"/>
<path d="M24.2019 6.10498C24.7056 5.17186 24.6135 4.14532 23.9963 3.81215C23.3791 3.47898 22.4704 3.96533 21.9667 4.89845C21.463 5.83157 21.555 6.8581 22.1723 7.19128C22.7895 7.52445 23.6982 7.0381 24.2019 6.10498Z" stroke="#1E1E1C" stroke-width="0.5" stroke-miterlimit="10"/>
<path d="M14.1038 6.95289C14.7059 6.59311 14.7531 5.56354 14.2092 4.65328C13.6653 3.74302 12.7362 3.29677 12.1341 3.65655C11.532 4.01633 11.4849 5.0459 12.0288 5.95616C12.5727 6.86642 13.5017 7.31267 14.1038 6.95289Z" stroke="#1E1E1C" stroke-width="0.5" stroke-miterlimit="10"/>
</svg>
