<svg width="14" height="25" viewBox="0 0 14 25" fill="none" xmlns="http://www.w3.org/2000/svg">
<path d="M11.12 0.25H2.38C1.20363 0.25 0.25 1.20363 0.25 2.38V22.45C0.25 23.6264 1.20363 24.58 2.38 24.58H11.12C12.2964 24.58 13.25 23.6264 13.25 22.45V2.38C13.25 1.20363 12.2964 0.25 11.12 0.25Z" stroke="#1E1E1C" stroke-width="0.5" stroke-miterlimit="10"/>
<path d="M11.8199 3.25995H1.67993V21.1699H11.8199V3.25995Z" stroke="#1E1E1C" stroke-width="0.5" stroke-miterlimit="10"/>
<path d="M7.69992 1.27997H5.56992C5.34901 1.27997 5.16992 1.45682 5.16992 1.67497C5.16992 1.89312 5.34901 2.06997 5.56992 2.06997H7.69992C7.92084 2.06997 8.09992 1.89312 8.09992 1.67497C8.09992 1.45682 7.92084 1.27997 7.69992 1.27997Z" fill="#1E1E1C"/>
<path d="M6.69997 23.89C7.24121 23.89 7.67997 23.4512 7.67997 22.91C7.67997 22.3688 7.24121 21.93 6.69997 21.93C6.15873 21.93 5.71997 22.3688 5.71997 22.91C5.71997 23.4512 6.15873 23.89 6.69997 23.89Z" stroke="#1E1E1C" stroke-width="0.5" stroke-miterlimit="10"/>
</svg>
