<svg width="25" height="14" viewBox="0 0 25 14" fill="none" xmlns="http://www.w3.org/2000/svg">
<path d="M23.42 4.23004H22.32C22.0548 4.23004 21.8004 4.3354 21.6129 4.52293C21.4254 4.71047 21.32 4.96483 21.32 5.23004V7.90004H3.25V5.23004C3.25032 4.97326 3.15186 4.7262 2.975 4.54004C2.79815 4.35388 2.55646 4.24288 2.3 4.23004H1.2C0.943545 4.24288 0.701855 4.35388 0.525001 4.54004C0.348146 4.7262 0.24968 4.97326 0.250001 5.23004V10.11C0.250001 10.3753 0.355358 10.6296 0.542894 10.8171C0.73043 11.0047 0.984784 11.11 1.25 11.11H2.34V12.59C2.3426 12.8173 2.43404 13.0346 2.59476 13.1953C2.75548 13.356 2.97272 13.4474 3.2 13.45H4.42C4.64728 13.4474 4.86452 13.356 5.02524 13.1953C5.18596 13.0346 5.2774 12.8173 5.28 12.59V11.11H19.38V12.59C19.38 12.8164 19.4692 13.0336 19.6283 13.1946C19.7875 13.3556 20.0037 13.4474 20.23 13.45H21.46C21.6863 13.4474 21.9025 13.3556 22.0617 13.1946C22.2208 13.0336 22.31 12.8164 22.31 12.59V11.11H23.42C23.6765 11.0972 23.9181 10.9862 24.095 10.8C24.2719 10.6139 24.3703 10.3668 24.37 10.11V5.23004C24.3703 4.97326 24.2719 4.7262 24.095 4.54004C23.9181 4.35388 23.6765 4.24288 23.42 4.23004Z" stroke="#1E1E1C" stroke-width="0.5" stroke-miterlimit="10"/>
<path d="M21.3701 7.90003H13.1101C13.0042 7.90004 12.8994 7.87902 12.8016 7.83819C12.7039 7.79736 12.6153 7.73754 12.5409 7.66219C12.4665 7.58684 12.4077 7.49747 12.3681 7.39925C12.3285 7.30103 12.3088 7.19593 12.3101 7.09003V1.09003C12.3088 0.984133 12.3285 0.879028 12.3681 0.78081C12.4077 0.682593 12.4665 0.593217 12.5409 0.517868C12.6153 0.442519 12.7039 0.382696 12.8016 0.341868C12.8994 0.30104 13.0042 0.280021 13.1101 0.280029H21.6301C21.736 0.280021 21.8409 0.30104 21.9386 0.341868C22.0363 0.382696 22.125 0.442519 22.1994 0.517868C22.2738 0.593217 22.3325 0.682593 22.3721 0.78081C22.4117 0.879028 22.4314 0.984133 22.4301 1.09003V4.19003" stroke="#1E1E1C" stroke-width="0.5" stroke-miterlimit="10"/>
<path d="M2.19 4.18V1.06C2.18868 0.954104 2.2084 0.848999 2.24801 0.750782C2.28762 0.652564 2.34633 0.563189 2.42075 0.487839C2.49517 0.41249 2.58381 0.352666 2.68153 0.311839C2.77925 0.271011 2.8841 0.249992 2.99 0.25H11.51C11.6159 0.249992 11.7208 0.271011 11.8185 0.311839C11.9162 0.352666 12.0048 0.41249 12.0793 0.487839C12.1537 0.563189 12.2124 0.652564 12.252 0.750782C12.2916 0.848999 12.3113 0.954104 12.31 1.06V7.06C12.3113 7.1659 12.2916 7.271 12.252 7.36922C12.2124 7.46744 12.1537 7.55681 12.0793 7.63216C12.0048 7.70751 11.9162 7.76733 11.8185 7.80816C11.7208 7.84899 11.6159 7.87001 11.51 7.87H3.25" stroke="#1E1E1C" stroke-width="0.5" stroke-miterlimit="10"/>
<path d="M4.46997 10.22H20.15" stroke="#1E1E1C" stroke-width="0.5" stroke-miterlimit="10" stroke-linecap="round"/>
</svg>
