<svg width="24" height="24" viewBox="0 0 24 24" fill="none" xmlns="http://www.w3.org/2000/svg">
<path d="M11.75 23.25C18.1013 23.25 23.25 18.1013 23.25 11.75C23.25 5.39873 18.1013 0.25 11.75 0.25C5.39873 0.25 0.25 5.39873 0.25 11.75C0.25 18.1013 5.39873 23.25 11.75 23.25Z" stroke="#1E1E1C" stroke-width="0.5" stroke-miterlimit="10"/>
<path d="M9.34664 0.25C9.34664 0.25 8.5843 7.10855 11.3419 10.8541C11.3419 10.8541 19.6524 11.3383 22.25 16.25" stroke="#1E1E1C" stroke-width="0.5" stroke-miterlimit="10"/>
<path d="M4.41012 3.25C4.41012 3.25 3.05139 10.6346 8.25 15.25" stroke="#1E1E1C" stroke-width="0.5" stroke-miterlimit="10"/>
<path d="M9.25 4.37728C9.25 4.37728 17.82 3.00827 23.25 9.25" stroke="#1E1E1C" stroke-width="0.5" stroke-miterlimit="10"/>
<path d="M17.25 12.25C16.3341 14.7636 14.8492 16.9936 12.929 18.7392C11.0088 20.4848 8.71356 21.6913 6.25 22.25" stroke="#1E1E1C" stroke-width="0.5" stroke-miterlimit="10"/>
<path d="M11.25 10.25C11.25 10.25 10.1449 15.8427 2.25 18.25" stroke="#1E1E1C" stroke-width="0.5" stroke-miterlimit="10"/>
</svg>
