<svg width="20" height="25" viewBox="0 0 20 25" fill="none" xmlns="http://www.w3.org/2000/svg">
<path d="M18.36 0.25H1.53C0.823076 0.25 0.25 0.823075 0.25 1.53V23.23C0.25 23.9369 0.823076 24.51 1.53 24.51H18.36C19.0669 24.51 19.64 23.9369 19.64 23.23V1.53C19.64 0.823075 19.0669 0.25 18.36 0.25Z" stroke="#1E1E1C" stroke-width="0.5" stroke-miterlimit="10"/>
<path d="M0.27002 4.98999H19.61" stroke="#1E1E1C" stroke-width="0.5" stroke-miterlimit="10"/>
<path d="M0.27002 6.47003H19.61" stroke="#1E1E1C" stroke-width="0.5" stroke-miterlimit="10"/>
<path d="M2.84995 3.86C3.48508 3.86 3.99995 3.34512 3.99995 2.71C3.99995 2.07487 3.48508 1.56 2.84995 1.56C2.21482 1.56 1.69995 2.07487 1.69995 2.71C1.69995 3.34512 2.21482 3.86 2.84995 3.86Z" stroke="#1E1E1C" stroke-width="0.5" stroke-miterlimit="10"/>
<path d="M6.10996 3.86C6.74509 3.86 7.25996 3.34512 7.25996 2.71C7.25996 2.07487 6.74509 1.56 6.10996 1.56C5.47483 1.56 4.95996 2.07487 4.95996 2.71C4.95996 3.34512 5.47483 3.86 6.10996 3.86Z" stroke="#1E1E1C" stroke-width="0.5" stroke-miterlimit="10"/>
<path d="M9.36997 3.86C10.0051 3.86 10.52 3.34512 10.52 2.71C10.52 2.07487 10.0051 1.56 9.36997 1.56C8.73484 1.56 8.21997 2.07487 8.21997 2.71C8.21997 3.34512 8.73484 3.86 9.36997 3.86Z" stroke="#1E1E1C" stroke-width="0.5" stroke-miterlimit="10"/>
<path d="M18.1799 2.71002H11.6099" stroke="#1E1E1C" stroke-width="0.5" stroke-miterlimit="10" stroke-linecap="round"/>
<path d="M9.79987 21.97C13.3511 21.97 16.2299 19.0912 16.2299 15.54C16.2299 11.9888 13.3511 9.10999 9.79987 9.10999C6.24868 9.10999 3.36987 11.9888 3.36987 15.54C3.36987 19.0912 6.24868 21.97 9.79987 21.97Z" stroke="#1E1E1C" stroke-width="0.5" stroke-miterlimit="10"/>
<path d="M9.66988 20.59C12.4534 20.59 14.7099 18.3335 14.7099 15.55C14.7099 12.7665 12.4534 10.51 9.66988 10.51C6.88637 10.51 4.62988 12.7665 4.62988 15.55C4.62988 18.3335 6.88637 20.59 9.66988 20.59Z" stroke="#1E1E1C" stroke-width="0.5" stroke-miterlimit="10"/>
<path d="M14.2198 13.31H11.6198C11.4784 13.3126 11.3436 13.3707 11.2445 13.4717C11.1453 13.5726 11.0898 13.7085 11.0898 13.85V16.76C11.0898 16.8296 11.1036 16.8985 11.1302 16.9628C11.1568 17.0271 11.1959 17.0855 11.2451 17.1348C11.2943 17.184 11.3527 17.223 11.417 17.2497C11.4813 17.2763 11.5502 17.29 11.6198 17.29H14.4398" stroke="#1E1E1C" stroke-width="0.5" stroke-miterlimit="10"/>
</svg>
